<svg xmlns="http://www.w3.org/2000/svg" width="24" height="24" fill="currentColor" viewBox="0 0 24 24">
<path d="M16.365 1.43c0 1.14-.466 2.205-1.217 3.013-.777.835-2.1 1.484-3.2 1.38-.147-1.1.51-2.3 1.269-3.102.808-.873 2.208-1.509 3.148-1.566zm4.415 17.01c-.09.194-1.323 4.54-4.902 4.54-1.071 0-1.91-.352-2.85-.352-.966 0-1.934.368-2.858.368-3.226 0-5.644-4.08-5.644-7.588 0-3.32 2.159-5.073 4.083-5.073 1.09 0 1.998.402 2.725.402.706 0 1.834-.435 3.192-.435 3.006 0 4.786 2.141 4.786 5.19.01 1.67-.62 3.303-1.532 3.948z"/>
</svg>
