<svg width="24" height="24" viewBox="0 0 24 24" fill="none" xmlns="http://www.w3.org/2000/svg">
<path d="M23.52 12.273c0-.851-.076-1.67-.218-2.455H12v4.644h6.46a5.52 5.52 0 0 1-2.395 3.62v3.005h3.873c2.266-2.085 3.582-5.158 3.582-8.814Z" fill="#4285F4"/>
<path d="M12 24c3.24 0 5.957-1.073 7.943-2.913l-3.873-3.005c-1.076.72-2.452 1.151-4.07 1.151-3.129 0-5.778-2.114-6.72-4.957H1.29v3.118A11.996 11.996 0 0 0 12 24Z" fill="#34A853"/>
<path d="M5.28 14.276A7.2 7.2 0 0 1 4.897 12c0-.79.138-1.553.383-2.276V6.606H1.29A12.004 12.004 0 0 0 0 12c0 1.958.469 3.81 1.29 5.394l3.99-3.118Z" fill="#FBBC05"/>
<path d="M12 4.75c1.761 0 3.342.606 4.587 1.795l3.44-3.44C17.952 1.195 15.235 0 12 0 7.29 0 3.26 2.707 1.29 6.606l3.99 3.118C6.22 6.98 8.87 4.75 12 4.75Z" fill="#EA4335"/>
</svg>
